<svg width="16" height="20" viewBox="0 0 16 20" fill="none" xmlns="http://www.w3.org/2000/svg">
<path d="M8.579 0.393034C8.41073 0.272335 8.20861 0.20792 8.00153 0.208998C7.79445 0.210075 7.59301 0.27659 7.426 0.399034C5.592 1.72803 0 6.25203 0 12C0 15.247 1.948 18.043 4.734 19.296C4.25735 18.6252 4.00086 17.8229 4 17C3.983 13.779 7.558 10.107 7.71 10C7.79441 9.93954 7.89565 9.90701 7.9995 9.90701C8.10335 9.90701 8.20459 9.93954 8.289 10C8.441 10.107 12 12.974 12 17.002C12 17.856 11.725 18.645 11.267 19.296C14.052 18.043 16 15.248 16 12.005C16 6.14403 10.418 1.69803 8.579 0.393034Z" fill="#E93530"/>
</svg>
