<svg width="19" height="19" viewBox="0 0 19 19" fill="none" xmlns="http://www.w3.org/2000/svg">
<path d="M11.5417 4.31014C12.3556 4.46894 13.1036 4.86702 13.69 5.45342C14.2764 6.03982 14.6745 6.78786 14.8333 7.60181M11.5417 0.976807C13.2327 1.16467 14.8096 1.92195 16.0135 3.12431C17.2174 4.32667 17.9767 5.90265 18.1667 7.59347M17.3333 14.2435V16.7435C17.3343 16.9756 17.2867 17.2053 17.1937 17.4179C17.1008 17.6306 16.9644 17.8215 16.7934 17.9784C16.6224 18.1353 16.4205 18.2547 16.2006 18.3291C15.9808 18.4034 15.7478 18.431 15.5167 18.4101C12.9523 18.1315 10.4892 17.2553 8.32499 15.8518C6.31151 14.5724 4.60443 12.8653 3.32499 10.8518C1.91663 8.67781 1.04019 6.20264 0.766652 3.62681C0.745827 3.39636 0.773214 3.16411 0.847069 2.94483C0.920923 2.72555 1.03963 2.52405 1.19562 2.35316C1.35162 2.18227 1.54149 2.04573 1.75314 1.95224C1.9648 1.85875 2.1936 1.81036 2.42499 1.81014H4.92499C5.32941 1.80616 5.72148 1.94937 6.02812 2.21308C6.33476 2.4768 6.53505 2.84301 6.59165 3.24347C6.69717 4.04353 6.89286 4.82908 7.17499 5.58514C7.2871 5.88341 7.31137 6.20757 7.24491 6.51921C7.17844 6.83084 7.02404 7.1169 6.79999 7.34347L5.74165 8.40181C6.92795 10.4881 8.65536 12.2155 10.7417 13.4018L11.8 12.3435C12.0266 12.1194 12.3126 11.965 12.6243 11.8986C12.9359 11.8321 13.26 11.8564 13.5583 11.9685C14.3144 12.2506 15.0999 12.4463 15.9 12.5518C16.3048 12.6089 16.6745 12.8128 16.9388 13.1247C17.203 13.4366 17.3435 13.8348 17.3333 14.2435Z" stroke="white" stroke-linecap="round" stroke-linejoin="round"/>
</svg>
