<svg width="154" height="83" viewBox="0 0 154 83" fill="none" xmlns="http://www.w3.org/2000/svg">
<path fill-rule="evenodd" clip-rule="evenodd" d="M107.922 40.2498H100.169L114.443 28.1383C115.274 27.4335 115.251 26.1445 114.395 25.4703L99.0004 13.3412V13.2996H98.9476L82.5407 0.37293C81.4101 -0.517789 79.7504 0.287509 79.7504 1.72677V13.2996H0V19.7302L3.3692 19.6484H6.42124C8.71027 19.6484 10.4417 20.1278 11.6156 21.0864C12.7894 22.0451 13.3764 23.4244 13.3764 25.2243C13.3764 26.6916 12.9753 27.9242 12.1732 28.9219C11.371 29.9197 10.1385 30.6045 8.4755 30.9762C9.16026 31.1719 9.69828 31.4947 10.0896 31.9446C10.5004 32.3751 10.8721 32.9229 11.2047 33.5881L13.3764 37.8726L15.1665 38.4302V40.2497H20.8512C19.7997 39.9298 18.888 39.3722 18.1161 38.577C16.8248 37.227 16.1792 35.2706 16.1792 32.7076C16.1792 30.986 16.4824 29.4991 17.0889 28.247C17.715 26.9753 18.5856 26.0069 19.7008 25.3417C20.8355 24.6569 22.1757 24.3145 23.7213 24.3145C25.1886 24.3145 26.382 24.6178 27.3015 25.2243C28.2406 25.8112 28.9352 26.6231 29.3851 27.66C29.8351 28.697 30.0601 29.8708 30.0601 31.1816C30.0601 31.7686 30.0112 32.3848 29.9134 33.0305H19.8182C19.916 34.4978 20.2975 35.6814 20.9627 36.5814C21.6474 37.4814 22.6648 37.9313 24.0147 37.9313C24.6995 37.9313 25.4429 37.8042 26.2451 37.5498C27.0472 37.2955 27.8787 36.9042 28.7395 36.376L29.9427 38.2835C28.8276 39.0465 27.6928 39.6237 26.5385 40.0149C26.2626 40.1038 25.9883 40.1821 25.7157 40.2497H33.6241V40.1452L35.6081 40.0989C35.3076 39.9301 35.0416 39.7163 34.8099 39.4574C34.1447 38.6943 33.8121 37.5596 33.8121 36.0532V27.0144H31.4057V25.1069L33.8121 24.608V21.1745L37.363 20.5582V24.6374H41.4716L41.4129 27.0144H37.363V35.5836C37.363 36.4249 37.5098 37.0314 37.8032 37.4031C38.0967 37.7748 38.5173 37.9607 39.0651 37.9607C39.6912 37.9607 40.4738 37.7553 41.4129 37.3444L42.0878 39.2813C41.5748 39.5681 41.0653 39.8072 40.5655 39.9985H42.7215C43.5943 39.9985 44.4187 40.0822 45.1946 40.2497H45.7798C45.3085 40.0597 44.8802 39.7858 44.4949 39.428C43.6928 38.6454 43.2917 37.5107 43.2917 36.0238C43.2917 34.3413 43.82 33.1772 44.8764 32.5316C45.9525 31.8664 47.4394 31.5338 49.3371 31.5338H52.4479V29.6263C52.4479 28.6676 52.2033 27.9829 51.7142 27.572C51.2251 27.1416 50.5305 26.9264 49.6306 26.9264C48.848 26.9264 47.9578 27.0731 46.96 27.3666L46.6372 29.5382H44.3776L44.1428 25.4297C46.6861 24.6863 48.8284 24.3145 50.5697 24.3145C52.2913 24.3145 53.6217 24.696 54.5608 25.4591C55.4999 26.2025 55.9694 27.3764 55.9694 28.9806V37.814L58.053 38.4009V40.2204L57.4521 40.2497L59.3931 40.2497V38.4302L61.4767 37.8726V27.0731L59.3931 26.5449V24.7254L64.9983 24.52V37.8726L67.0526 38.4302V40.2497H68.297V38.4302L70.3513 37.8726V20.0593L68.297 19.5311V17.7116L73.8729 17.4768V37.8726L75.9565 38.4302V40.2497L79.7504 40.2497V40.2498H57.4506L53.2402 40.4551L53.204 40.2498H49.4438C48.8017 40.4649 48.1695 40.5725 47.547 40.5725C46.9028 40.5725 46.3138 40.4649 45.78 40.2498H45.1949C46.0537 40.4351 46.8531 40.7231 47.593 41.1137C49.0017 41.8375 50.0973 42.9331 50.8798 44.4005C51.6624 45.8678 52.0537 47.7166 52.0537 49.947C52.0537 52.2751 51.6331 54.2316 50.7918 55.8163C49.9701 57.3814 48.8158 58.5748 47.3289 59.3965C45.842 60.1987 44.1106 60.5998 42.1346 60.5998H33.6241V58.7803L35.9131 58.164V46.2643L19.2501 67.1999H118.25V80.5601C118.25 82.023 119.958 82.8207 121.08 81.8818L152.934 55.2239C153.77 54.525 153.755 53.2361 152.904 52.556L121.05 27.0882C119.921 26.1858 118.25 26.9894 118.25 28.4344V40.2498H112.065V58.2227L114.148 58.7803V60.5998H106.489V58.7803L108.543 58.2227V40.4093L107.922 40.2498ZM10.7645 40.2497H5.83431V38.4302L3.22247 37.814V31.6512H4.30829C5.0713 31.6512 5.65823 31.7294 6.06909 31.8859C6.4995 32.0425 6.85166 32.3359 7.12556 32.7663C7.39946 33.1772 7.72227 33.7739 8.094 34.5565L10.7645 40.2497ZM53.204 40.2497H49.444C49.71 40.1605 49.9776 40.053 50.2469 39.9269C51.1664 39.4965 52.0174 38.8411 52.8 37.9607L53.204 40.2497ZM61.5354 21.4092C61.9267 21.7614 62.4452 21.9375 63.0908 21.9375C63.6973 21.9375 64.206 21.7614 64.6168 21.4092C65.0277 21.0375 65.2331 20.4995 65.2331 19.7952C65.2331 19.0909 65.0277 18.5626 64.6168 18.2105C64.2255 17.8387 63.7266 17.6529 63.1201 17.6529C62.4941 17.6529 61.9756 17.8387 61.5648 18.2105C61.1539 18.5626 60.9485 19.1006 60.9485 19.8245C60.9485 20.5093 61.1441 21.0375 61.5354 21.4092ZM5.9517 22.2309H3.22247V29.1274H5.15934C8.19182 29.1274 9.70806 27.9144 9.70806 25.4884C9.70806 24.4515 9.39503 23.6494 8.76897 23.082C8.16247 22.5146 7.22338 22.2309 5.9517 22.2309ZM23.4278 26.897C22.3713 26.897 21.5594 27.259 20.992 27.9829C20.4247 28.7067 20.0627 29.6458 19.9062 30.8001H26.4211C26.4211 29.685 26.1864 28.7557 25.7168 28.0122C25.2668 27.2688 24.5038 26.897 23.4278 26.897ZM46.8427 35.701C46.8427 36.5031 47.0285 37.0901 47.4002 37.4618C47.772 37.814 48.2513 37.99 48.8382 37.99C49.3665 37.99 49.9436 37.8335 50.5697 37.5205C51.2153 37.2075 51.8414 36.7673 52.4479 36.1999V33.5587H49.8947C48.7404 33.5587 47.9383 33.7348 47.4883 34.0869C47.0579 34.4391 46.8427 34.9771 46.8427 35.701ZM44.4236 57.6651C43.7389 57.8803 43.0345 57.9879 42.3107 57.9879H39.5227V42.6103H42.6041C43.2889 42.6103 43.9541 42.7179 44.5997 42.9331C45.2649 43.1483 45.8616 43.5299 46.3898 44.0777C46.9376 44.6059 47.368 45.3689 47.6811 46.3667C48.0137 47.3449 48.18 48.6166 48.18 50.1817C48.18 51.786 48.0039 53.0968 47.6517 54.1142C47.3191 55.1315 46.8691 55.9239 46.3018 56.4912C45.754 57.0586 45.1279 57.4499 44.4236 57.6651ZM56.3078 58.927C57.599 60.2574 59.2816 60.9226 61.3554 60.9226C62.451 60.9226 63.576 60.7367 64.7303 60.365C65.8846 59.9737 67.0193 59.3965 68.1345 58.6335L66.9313 56.726C66.0704 57.2542 65.2389 57.6455 64.4368 57.8999C63.6347 58.1542 62.8912 58.2814 62.2065 58.2814C60.8565 58.2814 59.8392 57.8314 59.1544 56.9314C58.4892 56.0315 58.1077 54.8478 58.0099 53.3805H68.1051C68.2029 52.7349 68.2518 52.1186 68.2518 51.5317C68.2518 50.2209 68.0269 49.047 67.5769 48.0101C67.1269 46.9732 66.4324 46.1613 65.4933 45.5743C64.5737 44.9678 63.3803 44.6646 61.913 44.6646C60.3674 44.6646 59.0272 45.007 57.8925 45.6917C56.7774 46.3569 55.9067 47.3253 55.2807 48.597C54.6742 49.8491 54.3709 51.336 54.3709 53.0577C54.3709 55.6206 55.0166 57.5771 56.3078 58.927ZM59.1838 48.3329C59.7511 47.609 60.5631 47.2471 61.6195 47.2471C62.6956 47.2471 63.4586 47.6188 63.9086 48.3622C64.3781 49.1057 64.6129 50.035 64.6129 51.1502H58.0979C58.2545 49.9959 58.6164 49.0568 59.1838 48.3329ZM75.8482 60.9226C74.6157 60.9226 73.6668 60.5508 73.0016 59.8074C72.3364 59.0444 72.0038 57.9097 72.0038 56.4032V47.3645H69.5974V45.4569L72.0038 44.958V41.5245L75.5548 40.9082V44.9874H79.6633L79.6046 47.3645H75.5548V55.9337C75.5548 56.7749 75.7015 57.3814 75.995 57.7531C76.2884 58.1249 76.7091 58.3107 77.2569 58.3107C77.8829 58.3107 78.6655 58.1053 79.6046 57.6944L80.2796 59.6313C78.734 60.4922 77.2569 60.9226 75.8482 60.9226ZM90.9917 58.3107L91.4319 60.8052L96.2448 60.5704V58.7509L94.1612 58.164V49.3307C94.1612 47.7264 93.6916 46.5525 92.7525 45.8091C91.8135 45.0461 90.4831 44.6646 88.7614 44.6646C87.0202 44.6646 84.8779 45.0363 82.3345 45.7798L82.5693 49.8883H84.829L85.1518 47.7166C86.1496 47.4232 87.0397 47.2764 87.8223 47.2764C88.7223 47.2764 89.4168 47.4916 89.9059 47.9221C90.395 48.3329 90.6396 49.0177 90.6396 49.9763V51.8838H87.5289C85.6311 51.8838 84.1442 52.2164 83.0682 52.8816C82.0117 53.5272 81.4835 54.6913 81.4835 56.3739C81.4835 57.8607 81.8845 58.9955 82.6867 59.7781C83.5084 60.5411 84.5257 60.9226 85.7387 60.9226C86.6191 60.9226 87.5191 60.7074 88.4386 60.2769C89.3581 59.8465 90.2092 59.1911 90.9917 58.3107ZM85.592 57.8118C85.2203 57.4401 85.0344 56.8532 85.0344 56.051C85.0344 55.3272 85.2496 54.7891 85.68 54.437C86.13 54.0848 86.9321 53.9087 88.0864 53.9087H90.6396V56.5499C90.0331 57.1173 89.407 57.5575 88.7614 57.8705C88.1353 58.1836 87.5582 58.3401 87.03 58.3401C86.443 58.3401 85.9637 58.164 85.592 57.8118ZM105.244 58.7803V60.5998H97.5849V58.7803L99.6685 58.2227V47.4232L97.5849 46.8949V45.0754L103.19 44.87V58.2227L105.244 58.7803Z" fill="white"/>
</svg>
