<svg width="143" height="78" viewBox="0 0 143 78" fill="none" xmlns="http://www.w3.org/2000/svg">
<path fill-rule="evenodd" clip-rule="evenodd" d="M100.018 38.1718H92.8331L106.062 26.9474C106.832 26.2942 106.81 25.0996 106.017 24.4748L91.7498 13.234V13.1954H91.7009L76.4956 1.21549C75.4478 0.390006 73.9097 1.13633 73.9097 2.47018V13.1954H0V19.1551L3.12245 19.0793H5.95097C8.07235 19.0793 9.67699 19.5235 10.7649 20.412C11.8528 21.3004 12.3967 22.5787 12.3967 24.2468C12.3967 25.6066 12.025 26.7489 11.2816 27.6736C10.5382 28.5983 9.39595 29.233 7.85477 29.5775C8.48938 29.7588 8.98799 30.0579 9.35062 30.475C9.73139 30.8739 10.0759 31.3815 10.3841 31.998L12.3967 35.9688L14.0558 36.4856V38.1718H19.3241C18.3496 37.8753 17.5046 37.3586 16.7893 36.6215C15.5926 35.3705 14.9943 33.5573 14.9943 31.1821C14.9943 29.5865 15.2753 28.2085 15.8374 27.0481C16.4176 25.8696 17.2244 24.972 18.2579 24.3556C19.3096 23.721 20.5516 23.4037 21.984 23.4037C23.3438 23.4037 24.4499 23.6847 25.302 24.2468C26.1723 24.7907 26.816 25.5432 27.233 26.5042C27.6501 27.4651 27.8586 28.553 27.8586 29.7678C27.8586 30.3118 27.8132 30.8829 27.7226 31.4813H18.3667C18.4574 32.8411 18.811 33.9381 19.4274 34.7721C20.062 35.6062 21.0049 36.0232 22.2559 36.0232C22.8905 36.0232 23.5795 35.9053 24.3229 35.6696C25.0663 35.4339 25.8369 35.0713 26.6347 34.5817L27.7498 36.3496C26.7163 37.0567 25.6647 37.5916 24.5949 37.9542C24.3391 38.0366 24.0849 38.1091 23.8323 38.1718H31.1615V38.0749L33.0003 38.032C32.7218 37.8756 32.4752 37.6774 32.2605 37.4375C31.644 36.7303 31.3358 35.6787 31.3358 34.2826V25.9058H29.1056V24.138L31.3358 23.6756V20.4936L34.6267 19.9224V23.7028H38.4343L38.3799 25.9058H34.6267V33.8474C34.6267 34.6271 34.7626 35.1892 35.0346 35.5336C35.3066 35.8781 35.6964 36.0504 36.2041 36.0504C36.7843 36.0504 37.5096 35.86 38.3799 35.4793L39.0054 37.2743C38.5281 37.5401 38.0578 37.7617 37.5946 37.939H39.5927C40.4016 37.939 41.1656 38.0166 41.8846 38.1718H42.427C41.9902 37.9957 41.5933 37.7418 41.2362 37.4103C40.4928 36.685 40.1211 35.6334 40.1211 34.2554C40.1211 32.6961 40.6107 31.6172 41.5898 31.0189C42.587 30.4024 43.965 30.0942 45.7238 30.0942H48.6067V28.3264C48.6067 27.4379 48.38 26.8033 47.9268 26.4226C47.4735 26.0237 46.8298 25.8242 45.9957 25.8242C45.2705 25.8242 44.4455 25.9602 43.5208 26.2322L43.2216 28.2448H41.1274L40.9099 24.4372C43.267 23.7482 45.2524 23.4037 46.8661 23.4037C48.4616 23.4037 49.6946 23.7572 50.5649 24.4644C51.4352 25.1534 51.8704 26.2413 51.8704 27.748V35.9144L53.8014 36.4584V38.1446L53.2444 38.1718L55.0433 38.1718V36.4856L56.9743 35.9688V25.9602L55.0433 25.4707V23.7844L60.238 23.594V35.9688L62.1418 36.4856V38.1718H63.2951V36.4856L65.1989 35.9688V19.4601L63.2951 18.9705V17.2843L68.4626 17.0667V35.9688L70.3936 36.4856V38.1718L73.9097 38.1718V38.1718H53.2431L49.341 38.3622L49.3074 38.1718H45.8226C45.2276 38.3712 44.6416 38.471 44.0647 38.471C43.4678 38.471 42.9219 38.3712 42.4272 38.1718H41.8849C42.6808 38.3436 43.4216 38.6105 44.1074 38.9725C45.4129 39.6433 46.4282 40.6587 47.1535 42.0185C47.8788 43.3784 48.2414 45.0918 48.2414 47.1588C48.2414 49.3165 47.8516 51.1296 47.0719 52.5983C46.3104 54.0488 45.2406 55.1548 43.8626 55.9163C42.4846 56.6597 40.88 57.0314 39.0487 57.0314H31.1615V55.3452L33.2829 54.7741V43.7459L17.8403 63.1482H109.59V75.5299C109.59 76.8857 111.172 77.625 112.212 76.7549L141.734 52.0493C142.508 51.4015 142.494 50.2071 141.706 49.5768L112.184 25.9742C111.138 25.1379 109.59 25.8826 109.59 27.2218V38.1718H103.857V54.8285L105.788 55.3452V57.0314H98.6898V55.3452L100.594 54.8285V38.3197L100.018 38.1718ZM9.97615 38.1718H5.40702V36.4856L2.98646 35.9144V30.203H3.99276C4.69989 30.203 5.24384 30.2755 5.6246 30.4206C6.02349 30.5656 6.34986 30.8376 6.6037 31.2365C6.85754 31.6172 7.15671 32.1703 7.50121 32.8955L9.97615 38.1718ZM49.3074 38.1718H45.8228C46.0693 38.0891 46.3173 37.9894 46.5669 37.8726C47.4191 37.4737 48.2078 36.8663 48.933 36.0504L49.3074 38.1718ZM57.0287 20.7111C57.3913 21.0375 57.8718 21.2007 58.4702 21.2007C59.0322 21.2007 59.5037 21.0375 59.8844 20.7111C60.2652 20.3666 60.4556 19.868 60.4556 19.2153C60.4556 18.5626 60.2652 18.073 59.8844 17.7466C59.5218 17.4021 59.0594 17.2299 58.4973 17.2299C57.9171 17.2299 57.4367 17.4021 57.0559 17.7466C56.6751 18.073 56.4848 18.5716 56.4848 19.2425C56.4848 19.8771 56.6661 20.3666 57.0287 20.7111ZM5.51581 21.4727H2.98646V27.864H4.78148C7.59187 27.864 8.99706 26.7399 8.99706 24.4916C8.99706 23.5306 8.70695 22.7872 8.12675 22.2614C7.56467 21.7356 6.69436 21.4727 5.51581 21.4727ZM21.712 25.797C20.7329 25.797 19.9804 26.1325 19.4546 26.8033C18.9288 27.4742 18.5934 28.3445 18.4483 29.4143H24.4861C24.4861 28.3808 24.2685 27.5195 23.8334 26.8305C23.4164 26.1415 22.7092 25.797 21.712 25.797ZM43.412 33.9562C43.412 34.6996 43.5843 35.2435 43.9288 35.588C44.2733 35.9144 44.7175 36.0776 45.2614 36.0776C45.751 36.0776 46.2859 35.9325 46.8661 35.6424C47.4644 35.3523 48.0446 34.9444 48.6067 34.4186V31.9708H46.2405C45.1708 31.9708 44.4274 32.134 44.0103 32.4604C43.6115 32.7867 43.412 33.2853 43.412 33.9562ZM41.1701 54.3117C40.5355 54.5112 39.8828 54.6109 39.2119 54.6109H36.6282V40.3595H39.4839C40.1185 40.3595 40.735 40.4592 41.3333 40.6587C41.9498 40.8581 42.5028 41.2117 42.9923 41.7194C43.5 42.2089 43.8989 42.9161 44.189 43.8408C44.4972 44.7473 44.6514 45.9259 44.6514 47.3764C44.6514 48.8632 44.4882 50.078 44.1618 51.0208C43.8536 51.9637 43.4366 52.698 42.9107 53.2238C42.4031 53.7496 41.8228 54.1123 41.1701 54.3117ZM52.1839 55.4812C53.3806 56.7141 54.9399 57.3306 56.8619 57.3306C57.8772 57.3306 58.9198 57.1584 59.9896 56.8139C61.0593 56.4512 62.1109 55.9163 63.1444 55.2092L62.0293 53.4414C61.2316 53.9309 60.461 54.2936 59.7176 54.5293C58.9742 54.765 58.2852 54.8828 57.6506 54.8828C56.3995 54.8828 55.4567 54.4658 54.8221 53.6318C54.2056 52.7977 53.852 51.7008 53.7614 50.3409H63.1172C63.2079 49.7426 63.2532 49.1714 63.2532 48.6275C63.2532 47.4127 63.0447 46.3248 62.6277 45.3638C62.2107 44.4028 61.567 43.6504 60.6967 43.1064C59.8445 42.5444 58.7385 42.2633 57.3786 42.2633C55.9462 42.2633 54.7042 42.5806 53.6526 43.2152C52.6191 43.8317 51.8122 44.7292 51.232 45.9078C50.67 47.0682 50.3889 48.4462 50.3889 50.0417C50.3889 52.417 50.9873 54.2301 52.1839 55.4812ZM54.8493 45.663C55.3751 44.9921 56.1275 44.6567 57.1066 44.6567C58.1039 44.6567 58.811 45.0012 59.228 45.6902C59.6632 46.3792 59.8808 47.2404 59.8808 48.2739H53.843C53.988 47.2042 54.3235 46.3338 54.8493 45.663ZM70.2933 57.3306C69.151 57.3306 68.2716 56.9861 67.6551 56.2971C67.0387 55.59 66.7304 54.5383 66.7304 53.1422V44.7655H64.5003V42.9976L66.7304 42.5353V39.3532L70.0213 38.7821V42.5625H73.8289L73.7745 44.7655H70.0213V52.7071C70.0213 53.4867 70.1573 54.0488 70.4293 54.3933C70.7012 54.7378 71.0911 54.91 71.5987 54.91C72.1789 54.91 72.9042 54.7197 73.7745 54.3389L74.4001 56.1339C72.9677 56.9317 71.5987 57.3306 70.2933 57.3306ZM84.3277 54.91L84.7357 57.2218L89.196 57.0042V55.318L87.265 54.7741V46.5877C87.265 45.1009 86.8298 44.013 85.9595 43.324C85.0892 42.6169 83.8563 42.2633 82.2607 42.2633C80.647 42.2633 78.6616 42.6078 76.3045 43.2968L76.5221 47.1044H78.6163L78.9154 45.0918C79.8401 44.8199 80.6651 44.6839 81.3904 44.6839C82.2244 44.6839 82.8681 44.8833 83.3214 45.2822C83.7747 45.663 84.0013 46.2976 84.0013 47.186V48.9538H81.1184C79.3597 48.9538 77.9817 49.2621 76.9844 49.8786C76.0053 50.4769 75.5158 51.5557 75.5158 53.115C75.5158 54.493 75.8875 55.5446 76.6309 56.2699C77.3924 56.977 78.3352 57.3306 79.4594 57.3306C80.2753 57.3306 81.1094 57.1312 81.9615 56.7323C82.8137 56.3334 83.6024 55.726 84.3277 54.91ZM79.3234 54.4477C78.9789 54.1032 78.8067 53.5592 78.8067 52.8159C78.8067 52.145 79.0061 51.6464 79.405 51.32C79.822 50.9936 80.5654 50.8305 81.6352 50.8305H84.0013V53.2782C83.4393 53.804 82.859 54.212 82.2607 54.5021C81.6805 54.7922 81.1456 54.9372 80.6561 54.9372C80.1121 54.9372 79.6679 54.7741 79.3234 54.4477ZM97.5364 55.3452V57.0314H90.4379V55.3452L92.369 54.8285V44.8199L90.4379 44.3303V42.6441L95.6326 42.4537V54.8285L97.5364 55.3452Z" fill="#ED2724"/>
</svg>
